<?xml version="1.0" encoding="UTF-8" standalone="no"?>
<!DOCTYPE svg PUBLIC "-//W3C//DTD SVG 1.1//EN" "http://www.w3.org/Graphics/SVG/1.1/DTD/svg11.dtd">
<svg width="100%" height="100%" viewBox="0 0 2728 2700" version="1.1" xmlns="http://www.w3.org/2000/svg" xmlns:xlink="http://www.w3.org/1999/xlink" xml:space="preserve" xmlns:serif="http://www.serif.com/" style="fill-rule:evenodd;clip-rule:evenodd;">
    <g transform="matrix(1,0,0,1,-1771,-12808)">
        <g transform="matrix(4.16667,0,0,4.16667,1768.55,12669.1)">
            <path d="M47.835,276.468L330.097,71.392L612.359,276.468L504.545,608.287L155.649,608.287L47.835,276.468Z" style="fill:white;fill-rule:nonzero;stroke:black;stroke-width:18.43px;"/>
        </g>
        <g transform="matrix(4.16667,0,0,4.16667,1768.55,12669.1)">
            <path d="M122.596,303.545L329.521,153.205L536.446,303.545L457.408,546.801L201.634,546.801L122.596,303.545Z" style="fill:none;fill-rule:nonzero;stroke:rgb(5,170,255);stroke-width:57.6px;"/>
        </g>
        <g transform="matrix(4.16667,0,0,4.16667,1768.55,12669.1)">
            <path d="M371.03,368.945C371.03,368.945 508.182,502.21 522.006,615.568C410.86,715.102 201.839,671.97 201.839,671.97C201.839,671.97 336.763,599.532 371.03,368.945Z" style="fill-rule:nonzero;"/>
        </g>
        <g transform="matrix(4.16667,0,0,4.16667,1768.55,12669.1)">
            <path d="M269.127,680.093C259.249,679.476 250.15,678.669 242.046,677.804C285.899,649.537 326.254,596.579 354.757,540.282C370.871,508.456 382.938,476.057 389.602,447.296C394.335,426.864 396.212,408.82 395.202,394.307C400.48,400.119 406.395,406.799 412.71,414.208C411.859,425.896 409.828,438.392 406.84,451.289C399.805,481.656 387.191,515.396 370.544,548.275C345.111,598.508 309.652,647.909 269.127,680.093Z" style="fill:rgb(5,170,255);"/>
        </g>
        <g transform="matrix(4.16667,0,0,4.16667,1768.55,12669.1)">
            <path d="M341.223,411.102C341.223,411.102 256.863,582.722 153.325,630.9C24.316,555.951 0.746,343.832 0.746,343.832C0.746,343.832 111.332,449.767 341.223,411.102Z" style="fill-rule:nonzero;"/>
        </g>
        <g transform="matrix(4.16667,0,0,4.16667,1768.55,12669.1)">
            <path d="M13.814,410.337C11.348,400.751 9.304,391.848 7.623,383.873C48.057,416.846 110.894,438.861 173.243,448.572C208.492,454.062 243.033,455.527 272.446,452.977C293.34,451.165 311.081,447.374 324.571,441.929C320.675,448.744 316.149,456.434 311.055,464.73C299.676,467.532 287.164,469.462 273.975,470.606C242.92,473.298 206.934,471.728 170.52,466.056C114.886,457.391 56.946,438.933 13.814,410.337Z" style="fill:rgb(5,170,255);"/>
        </g>
        <g transform="matrix(4.16667,0,0,4.16667,1768.55,12669.1)">
            <path d="M292.71,395.339C292.71,395.339 103.421,368.142 25.607,284.559C57.021,138.704 251.475,50.739 251.475,50.739C251.475,50.739 184.897,188.648 292.71,395.339Z" style="fill-rule:nonzero;"/>
        </g>
        <g transform="matrix(4.16667,0,0,4.16667,1768.55,12669.1)">
            <path d="M192.263,83.719C200.617,78.411 208.453,73.716 215.518,69.653C196.654,118.297 195.135,184.861 205.166,247.16C210.837,282.38 220.117,315.684 231.632,342.869C239.812,362.18 248.9,377.882 258.247,389.029C250.561,387.429 241.849,385.502 232.385,383.22C226.204,373.264 220.502,361.961 215.338,349.77C203.181,321.068 193.554,286.357 187.696,249.973C178.745,194.384 178.395,133.576 192.263,83.719Z" style="fill:rgb(5,170,255);"/>
        </g>
        <g transform="matrix(4.16667,0,0,4.16667,1768.55,12669.1)">
            <path d="M292.71,344.33C292.71,344.33 260.083,155.9 315.529,56.066C463.953,40.872 607.703,198.625 607.703,198.625C607.703,198.625 455.969,177.923 292.71,344.33Z" style="fill-rule:nonzero;"/>
        </g>
        <g transform="matrix(4.16667,0,0,4.16667,1768.55,12669.1)">
            <path d="M558.039,152.503C565.669,158.809 572.556,164.81 578.603,170.273C526.511,167.365 462.734,186.489 406.584,215.28C374.841,231.557 346.035,250.675 323.738,270.027C307.9,283.774 295.775,297.269 288.063,309.603C287.209,301.799 286.35,292.918 285.595,283.212C293.154,274.257 302.141,265.341 312.139,256.663C335.68,236.231 365.717,216.35 398.51,199.535C448.613,173.844 506.337,154.721 558.039,152.503Z" style="fill:rgb(5,170,255);"/>
        </g>
        <g transform="matrix(4.16667,0,0,4.16667,1768.55,12669.1)">
            <path d="M341.223,328.567C341.223,328.567 510.348,239.309 622.429,261.191C682.746,397.655 577.134,583.118 577.134,583.118C577.134,583.118 549.935,432.413 341.223,328.567Z" style="fill-rule:nonzero;"/>
        </g>
        <g transform="matrix(4.16667,0,0,4.16667,1768.55,12669.1)">
            <path d="M605.652,521.632C602.013,530.836 598.434,539.241 595.107,546.681C581.775,496.239 543.879,441.494 499.146,396.989C473.856,371.829 446.773,350.341 421.478,335.116C403.509,324.3 386.928,316.94 372.814,313.416C379.972,310.192 388.153,306.631 397.151,302.914C408.004,307.335 419.26,313.128 430.603,319.955C457.31,336.03 485.5,358.453 511.626,384.445C551.541,424.156 587.566,473.146 605.652,521.632Z" style="fill:rgb(5,170,255);"/>
        </g>
        <g transform="matrix(4.16667,0,0,4.16667,1768.55,12669.1)">
            <path d="M414,381.5C414,428.168 376.168,466 329.5,466C282.832,466 245,428.168 245,381.5C245,334.832 282.832,297 329.5,297C376.168,297 414,334.832 414,381.5Z" style="fill:white;fill-rule:nonzero;stroke:black;stroke-width:70px;"/>
        </g>
    </g>
</svg>
